<svg version="1.1" id="Layer_1" xmlns="http://www.w3.org/2000/svg" xmlns:xlink="http://www.w3.org/1999/xlink" x="0px" y="0px"
	 width="100%" viewBox="0 0 80 80" enable-background="new 0 0 80 80" xml:space="preserve">
<path fill="#000000" opacity="1.000000" stroke="none" 
	d="
M45.000000,1.000000 
	C56.965134,1.000000 68.930267,1.000000 80.947701,1.000000 
	C80.947701,27.554235 80.947701,54.108593 80.947701,81.000000 
	C69.647995,81.000000 58.292656,81.000000 46.235741,80.672729 
	C46.747105,78.887703 47.892559,77.366814 49.185806,75.984161 
	C52.877857,72.036896 56.796516,68.285545 60.263699,64.153122 
	C61.400986,62.797611 60.847042,59.529003 62.058868,58.811661 
	C69.066467,54.663456 69.173347,47.124481 70.628769,40.762909 
	C71.762115,35.809132 75.017281,29.657442 69.070175,24.594313 
	C68.994026,23.208000 68.982758,22.197435 69.306763,20.997990 
	C71.851921,16.578392 71.352783,15.525094 67.244965,14.954011 
	C63.723343,14.464423 60.209965,13.809374 56.755302,12.970634 
	C52.189045,11.862016 45.729240,5.125368 45.000000,1.000000 
z"/>
<path fill="#000000" opacity="1.000000" stroke="none" 
	d="
M37.000000,81.000000 
	C25.034634,81.000000 13.069268,81.000000 1.051951,81.000000 
	C1.051951,54.445015 1.051951,27.889908 1.051951,1.000000 
	C12.685430,1.000000 24.374056,1.000000 36.788231,1.310226 
	C35.085327,4.401177 33.160538,8.141030 30.112400,9.741687 
	C25.335279,12.250276 19.769602,13.229358 14.605519,15.048198 
	C13.290084,15.511505 11.200130,16.708288 11.208917,17.549868 
	C11.307923,27.032755 9.063746,36.832710 13.399447,45.856087 
	C17.193256,53.751682 21.670872,61.318710 25.904449,69.354156 
	C26.471409,70.246071 26.980324,70.814728 27.484528,71.466690 
	C27.479818,71.550003 27.586744,71.678146 27.694790,71.962280 
	C29.607904,74.097900 31.412970,75.949387 33.395821,77.866394 
	C33.573605,77.931915 33.919106,77.776260 34.079460,77.844353 
	C34.239819,77.912445 34.586761,77.880272 34.532280,77.834305 
	C34.477802,77.788345 34.415051,77.916351 34.397781,78.306870 
	C35.244770,79.180046 36.109035,79.662704 36.979507,80.359032 
	C36.985710,80.572708 37.000000,81.000000 37.000000,81.000000 
M14.985637,57.487827 
	C14.551312,52.956047 14.551312,52.956047 10.321190,53.611500 
	C10.321190,55.385880 10.321190,57.121746 10.321190,59.245155 
	C12.092012,58.899544 13.493962,58.625923 14.985637,57.487827 
z"/>
<path fill="#D3431A" opacity="1.000000" stroke="none" 
	d="
M37.449982,81.000000 
	C37.000000,81.000000 36.985710,80.572708 36.842033,80.033951 
	C35.937252,78.968910 35.176151,78.442627 34.415051,77.916351 
	C34.415051,77.916351 34.477802,77.788345 34.606247,77.559631 
	C34.462830,77.479355 34.190968,77.627808 33.919106,77.776260 
	C33.919106,77.776260 33.573605,77.931915 33.277184,77.470901 
	C31.228737,75.186134 32.052917,70.756065 27.586744,71.678146 
	C27.586744,71.678146 27.479818,71.550003 27.559624,71.143402 
	C27.041756,70.168159 26.444080,69.599525 25.846407,69.030884 
	C21.670872,61.318710 17.193256,53.751682 13.399447,45.856087 
	C9.063746,36.832710 11.307923,27.032755 11.208917,17.549868 
	C11.200130,16.708288 13.290084,15.511505 14.605519,15.048198 
	C19.769602,13.229358 25.335279,12.250276 30.112400,9.741687 
	C33.160538,8.141030 35.085327,4.401177 37.256889,1.310226 
	C39.370556,1.000000 41.741116,1.000000 44.555836,1.000000 
	C45.729240,5.125368 52.189045,11.862016 56.755302,12.970634 
	C60.209965,13.809374 63.723343,14.464423 67.244965,14.954011 
	C71.352783,15.525094 71.851921,16.578392 69.035690,20.878529 
	C67.965828,20.591904 67.502319,20.235859 66.802658,19.558643 
	C61.126965,17.445305 55.687416,15.653137 50.045357,13.589916 
	C48.075966,11.920574 46.309082,10.522287 44.463116,8.982469 
	C44.247627,8.658558 44.072449,8.528255 43.713440,8.148053 
	C42.944744,6.724287 42.321102,5.602498 41.476444,4.083149 
	C39.718132,6.382719 38.932831,7.409761 38.005772,8.515738 
	C37.683754,8.732476 37.552761,8.907238 37.161407,9.281075 
	C33.886986,11.947522 30.922188,14.451853 27.979315,16.976471 
	C28.001238,16.996759 27.990211,16.938040 27.631752,16.687307 
	C22.983810,17.471231 18.694330,18.505888 13.593060,19.736353 
	C14.011515,24.018169 14.451911,28.524508 14.674307,33.260017 
	C14.962703,35.323177 15.469100,37.157162 15.954582,39.382202 
	C21.865204,58.335964 32.233715,73.918503 40.181679,75.700485 
	C39.518078,74.667656 39.012871,73.881348 38.873154,73.060722 
	C40.637436,73.056473 42.036232,73.086540 43.213005,73.384995 
	C42.799210,73.899940 42.583771,74.132660 42.427425,74.399956 
	C42.365780,74.505348 42.435932,74.687836 42.446064,74.835213 
	C43.728180,74.395050 45.370502,74.318680 46.237972,73.459747 
	C57.844250,61.967655 65.972755,48.698540 67.245644,31.923859 
	C67.424133,29.571680 68.483459,27.286339 69.135063,24.970058 
	C75.017281,29.657442 71.762115,35.809132 70.628769,40.762909 
	C69.173347,47.124481 69.066467,54.663456 62.058868,58.811661 
	C60.847042,59.529003 61.400986,62.797611 60.263699,64.153122 
	C56.796516,68.285545 52.877857,72.036896 49.185806,75.984161 
	C47.892559,77.366814 46.747105,78.887703 45.767082,80.672729 
	C43.299988,81.000000 40.599972,81.000000 37.449982,81.000000 
z"/>
<path fill="#F1C5BA" opacity="1.000000" stroke="none" 
	d="
M67.038811,19.879818 
	C67.502319,20.235859 67.965828,20.591904 68.700409,21.067410 
	C68.982758,22.197435 68.994026,23.208000 69.070175,24.594311 
	C68.483459,27.286339 67.424133,29.571680 67.245644,31.923859 
	C65.972755,48.698540 57.844250,61.967655 46.237972,73.459747 
	C45.370502,74.318680 43.728180,74.395050 42.446064,74.835213 
	C42.435932,74.687836 42.365780,74.505348 42.427425,74.399956 
	C42.583771,74.132660 42.799210,73.899940 43.486328,73.230331 
	C47.799316,68.206131 51.830879,63.758465 55.308086,58.912987 
	C56.392826,57.401405 55.979630,54.814869 56.403427,52.541683 
	C57.017235,51.979584 57.479767,51.596222 58.301399,51.142242 
	C59.490467,49.721600 60.320431,48.371578 61.435726,46.792919 
	C63.125187,38.383301 64.529320,30.202314 66.184380,21.830318 
	C66.636475,21.052813 66.837639,20.466314 67.038811,19.879818 
z"/>
<path fill="#EBA896" opacity="1.000000" stroke="none" 
	d="
M14.940774,57.920067 
	C13.493962,58.625923 12.092012,58.899544 10.321190,59.245155 
	C10.321190,57.121746 10.321190,55.385880 10.321190,53.611500 
	C14.551312,52.956047 14.551312,52.956047 14.940774,57.920067 
z"/>
<path fill="#D74F2C" opacity="1.000000" stroke="none" 
	d="
M27.694790,71.962280 
	C32.052917,70.756065 31.228737,75.186134 33.099403,77.405380 
	C31.412970,75.949387 29.607904,74.097900 27.694790,71.962280 
z"/>
<path fill="#D74F2C" opacity="1.000000" stroke="none" 
	d="
M25.904449,69.354156 
	C26.444080,69.599525 27.041756,70.168159 27.564335,71.060089 
	C26.980324,70.814728 26.471409,70.246071 25.904449,69.354156 
z"/>
<path fill="#D74F2C" opacity="1.000000" stroke="none" 
	d="
M34.397781,78.306870 
	C35.176151,78.442627 35.937252,78.968910 36.835827,79.820267 
	C36.109035,79.662704 35.244770,79.180046 34.397781,78.306870 
z"/>
<path fill="#D74F2C" opacity="1.000000" stroke="none" 
	d="
M34.079460,77.844353 
	C34.190968,77.627808 34.462830,77.479355 34.660728,77.605591 
	C34.586761,77.880272 34.239819,77.912445 34.079460,77.844353 
z"/>
<path fill="#F3CBC0" opacity="1.000000" stroke="none" 
	d="
M38.507664,73.095047 
	C39.012871,73.881348 39.518078,74.667656 40.181679,75.700485 
	C32.233715,73.918503 21.865204,58.335964 16.265842,39.370766 
	C17.173059,39.173019 17.748102,39.377769 18.374084,39.936497 
	C19.403368,42.884823 20.381712,45.479168 21.475178,48.442680 
	C22.525490,50.226669 23.460684,51.641487 24.732170,53.054802 
	C25.728563,54.038582 26.388664,55.023872 26.708635,55.992496 
	C27.919302,58.322670 29.470097,60.669510 31.012796,63.005474 
	C31.004700,62.994595 30.985928,62.975018 30.741898,63.338356 
	C32.306850,65.298347 34.115829,66.895004 35.908607,68.470810 
	C35.892403,68.449966 35.977428,68.456543 35.661453,68.793167 
	C35.886139,69.764984 36.426800,70.400177 36.956169,71.037209 
	C36.944874,71.039055 36.925957,71.075813 36.917698,71.355766 
	C37.442181,72.122162 37.974922,72.608604 38.507664,73.095047 
z"/>
<path fill="#D65E3B" opacity="1.000000" stroke="none" 
	d="
M18.323143,39.582520 
	C17.748102,39.377769 17.173059,39.173019 16.286758,38.979706 
	C15.469100,37.157162 14.962703,35.323177 15.060652,33.052895 
	C15.772356,30.500290 16.150877,28.354811 15.927021,26.274143 
	C15.537547,22.654121 16.605593,20.979902 20.522537,20.462973 
	C23.121559,20.119974 25.508394,18.169142 27.990211,16.938040 
	C27.990211,16.938040 28.001238,16.996759 28.334480,17.091579 
	C30.765491,16.115622 32.863262,15.044841 35.215500,14.132139 
	C35.693859,14.617528 35.917755,14.944839 35.948395,15.536993 
	C33.732464,17.415775 31.709787,19.029715 29.397806,20.761192 
	C28.133831,21.197334 27.159163,21.515944 25.760872,21.850086 
	C22.978975,22.387259 20.620701,22.908894 17.523548,23.593966 
	C18.334520,28.840807 19.072121,33.612942 19.433804,38.679131 
	C18.812971,39.176296 18.568056,39.379406 18.323143,39.582520 
z"/>
<path fill="#D55732" opacity="1.000000" stroke="none" 
	d="
M38.873154,73.060722 
	C37.974922,72.608604 37.442181,72.122162 37.149117,71.131744 
	C37.928772,70.441917 38.468754,70.256073 39.350525,70.032150 
	C40.150677,70.002052 40.609043,70.010040 41.041164,70.006882 
	C41.014919,69.995728 41.064610,69.967819 41.110741,70.183487 
	C41.539005,70.406975 41.921135,70.414795 42.615334,70.318985 
	C43.675240,69.201973 44.423080,68.188591 45.328300,67.129784 
	C45.485676,67.084358 45.776485,66.932945 46.079865,66.851440 
	C46.939194,65.933670 47.495140,65.097412 48.316544,64.036789 
	C49.760838,61.889126 50.939671,59.965813 52.382904,57.824333 
	C53.104179,56.070435 53.561058,54.534710 54.389374,52.944027 
	C55.257923,52.832851 55.755035,52.776634 56.252148,52.720421 
	C55.979630,54.814869 56.392826,57.401405 55.308086,58.912987 
	C51.830879,63.758465 47.799316,68.206131 43.708351,72.961960 
	C42.036232,73.086540 40.637436,73.056473 38.873154,73.060722 
z"/>
<path fill="#F4D1C8" opacity="1.000000" stroke="none" 
	d="
M27.631752,16.687307 
	C25.508394,18.169142 23.121559,20.119974 20.522537,20.462973 
	C16.605593,20.979902 15.537547,22.654121 15.927021,26.274143 
	C16.150877,28.354811 15.772356,30.500290 15.278652,32.823719 
	C14.451911,28.524508 14.011515,24.018169 13.593060,19.736353 
	C18.694330,18.505888 22.983810,17.471231 27.631752,16.687307 
z"/>
<path fill="#F3CBC1" opacity="1.000000" stroke="none" 
	d="
M66.802658,19.558645 
	C66.837639,20.466314 66.636475,21.052813 65.839447,21.663828 
	C60.169861,19.725023 55.096134,17.761698 49.918526,15.582320 
	C49.959049,14.864502 50.103458,14.362736 50.247864,13.860970 
	C55.687416,15.653137 61.126965,17.445305 66.802658,19.558645 
z"/>
<path fill="#F1C1B4" opacity="1.000000" stroke="none" 
	d="
M34.961029,13.974060 
	C32.863262,15.044841 30.765491,16.115622 28.312557,17.071293 
	C30.922188,14.451853 33.886986,11.947522 37.345512,9.588844 
	C37.987782,9.921846 38.136318,10.109194 38.102966,10.548162 
	C36.934391,11.857875 35.947712,12.915967 34.961029,13.974060 
z"/>
<path fill="#F1C1B4" opacity="1.000000" stroke="none" 
	d="
M50.045357,13.589916 
	C50.103458,14.362736 49.959049,14.864502 49.578400,15.638901 
	C49.113586,15.935519 48.885017,15.959505 48.398483,16.015600 
	C47.767456,15.732970 47.394386,15.418232 46.989883,14.765979 
	C45.893414,13.032490 44.828381,11.636518 43.977512,9.974976 
	C44.308517,9.514270 44.425362,9.319135 44.542202,9.123999 
	C46.309082,10.522287 48.075966,11.920574 50.045357,13.589916 
z"/>
<path fill="#F1C1B4" opacity="1.000000" stroke="none" 
	d="
M38.147530,8.436804 
	C38.932831,7.409761 39.718132,6.382719 41.476444,4.083149 
	C42.321102,5.602498 42.944744,6.724287 43.430412,8.326906 
	C43.124542,8.954812 42.956650,9.101886 42.437111,9.184851 
	C41.135124,9.174676 40.184772,9.228612 38.978287,9.051085 
	C38.530605,8.692017 38.339069,8.564411 38.147530,8.436804 
z"/>
<path fill="#F1C1B4" opacity="1.000000" stroke="none" 
	d="
M43.575470,8.628884 
	C44.072449,8.528255 44.247627,8.658558 44.463116,8.982468 
	C44.425362,9.319135 44.308517,9.514270 43.779316,9.847727 
	C43.119019,9.783654 42.926285,9.537958 42.788754,9.248960 
	C42.956650,9.101886 43.124542,8.954812 43.575470,8.628884 
z"/>
<path fill="#F1C1B4" opacity="1.000000" stroke="none" 
	d="
M37.655136,9.426729 
	C37.552761,8.907238 37.683754,8.732476 38.005772,8.515739 
	C38.339069,8.564411 38.530605,8.692017 38.854038,9.249687 
	C38.793575,9.932331 38.559887,10.137929 38.284859,10.296542 
	C38.136318,10.109194 37.987782,9.921846 37.655136,9.426729 
z"/>
<path fill="#CE431A" opacity="1.000000" stroke="none" 
	d="
M24.395876,53.056309 
	C23.460684,51.641487 22.525490,50.226669 21.982439,48.358414 
	C22.711004,47.841362 23.047428,47.777744 23.621548,47.675072 
	C24.915764,46.767719 25.972282,45.899418 27.117205,45.267323 
	C27.454063,45.943039 27.702518,46.382553 27.819662,47.126877 
	C36.054993,47.580429 44.421589,47.732941 52.788841,47.827774 
	C52.878563,47.828789 52.976852,47.074402 52.797527,46.494785 
	C51.393505,45.866776 50.263092,45.416634 49.500702,44.997303 
	C50.995506,44.647697 52.122288,44.267288 53.611534,43.849754 
	C54.664265,44.414669 55.294849,45.111496 56.060589,45.593685 
	C56.929760,46.141014 57.919880,46.496277 59.239529,46.948502 
	C60.131226,46.981834 60.640812,47.001698 61.150398,47.021553 
	C60.320431,48.371578 59.490467,49.721600 58.249390,50.756687 
	C55.490986,50.202778 53.143688,49.963799 50.510803,49.731655 
	C49.854393,49.831196 49.483562,49.923897 48.649445,49.903908 
	C46.272251,49.856335 44.358349,49.921448 42.462929,50.000187 
	C42.481415,50.013813 42.483913,49.967957 42.291763,49.748840 
	C41.398159,49.577431 40.696697,49.625145 39.668579,49.656136 
	C38.907860,49.674717 38.473804,49.710022 37.695862,49.521564 
	C33.464901,49.435253 29.577829,49.572708 25.465715,49.692078 
	C25.032209,50.132050 24.823746,50.590103 24.483173,51.367630 
	C24.366001,52.143501 24.380939,52.599903 24.395876,53.056309 
z"/>
<path fill="#D75732" opacity="1.000000" stroke="none" 
	d="
M61.435730,46.792923 
	C60.640812,47.001698 60.131226,46.981834 59.404411,46.620716 
	C62.520241,39.037491 64.080994,31.465580 63.838326,23.370104 
	C62.831886,23.205534 62.126297,23.257694 61.597042,22.977173 
	C57.264927,20.681002 52.965679,18.322830 48.656445,15.983492 
	C48.885017,15.959505 49.113586,15.935519 49.682285,15.854954 
	C55.096134,17.761698 60.169861,19.725023 65.588516,21.854837 
	C64.529320,30.202314 63.125187,38.383301 61.435730,46.792923 
z"/>
<path fill="#C98976" opacity="1.000000" stroke="none" 
	d="
M50.796391,49.724819 
	C53.143688,49.963799 55.490986,50.202778 57.890289,50.827309 
	C57.479767,51.596222 57.017235,51.979584 56.403427,52.541683 
	C55.755035,52.776634 55.257923,52.832851 54.212414,52.752411 
	C53.091267,52.749882 52.518513,52.884007 51.672676,52.785660 
	C51.198521,51.610397 50.997456,50.667606 50.796391,49.724819 
z"/>
<path fill="#D4C7C4" opacity="1.000000" stroke="none" 
	d="
M24.732170,53.054802 
	C24.380939,52.599903 24.366001,52.143501 24.617931,51.346008 
	C24.884800,51.004925 25.151527,50.985363 25.151527,50.985363 
	C25.151527,50.985363 25.418509,51.000946 25.814583,51.018475 
	C30.421001,50.005390 33.032436,51.515514 33.974388,56.233665 
	C34.126106,57.400208 34.168159,58.185867 34.172592,59.362064 
	C35.082832,60.351189 36.030697,60.949776 36.964779,61.570404 
	C36.950996,61.592445 36.940971,61.669849 37.156994,61.992378 
	C37.488689,63.071815 37.604362,63.828720 37.343422,64.732574 
	C36.971073,65.597717 36.975334,66.315910 36.670174,67.018585 
	C35.948170,66.989342 35.535583,66.975632 34.882645,66.741226 
	C33.423504,65.338699 32.204716,64.156860 30.985928,62.975018 
	C30.985928,62.975018 31.004700,62.994595 31.038433,62.657501 
	C29.731033,60.216663 28.389898,58.112911 27.048763,56.009163 
	C26.388664,55.023872 25.728563,54.038582 24.732170,53.054802 
z"/>
<path fill="#D55732" opacity="1.000000" stroke="none" 
	d="
M26.708633,55.992496 
	C28.389898,58.112911 29.731033,60.216663 31.046532,62.668381 
	C29.470097,60.669510 27.919302,58.322670 26.708633,55.992496 
z"/>
<path fill="#D65E3B" opacity="1.000000" stroke="none" 
	d="
M23.383850,47.714127 
	C23.047428,47.777744 22.711004,47.841362 21.867317,47.989250 
	C20.381712,45.479168 19.403368,42.884823 18.374084,39.936497 
	C18.568056,39.379406 18.812971,39.176296 19.594677,39.012192 
	C21.215597,41.938839 22.299725,44.826481 23.383850,47.714127 
z"/>
<path fill="#D55732" opacity="1.000000" stroke="none" 
	d="
M30.741899,63.338356 
	C32.204716,64.156860 33.423504,65.338699 35.062889,67.134277 
	C35.630596,67.995895 35.777706,68.243774 35.924812,68.491653 
	C34.115829,66.895004 32.306850,65.298347 30.741899,63.338356 
z"/>
<path fill="#D8B4AB" opacity="1.000000" stroke="none" 
	d="
M35.908607,68.470810 
	C35.777706,68.243774 35.630596,67.995895 35.303246,67.354965 
	C35.535583,66.975632 35.948170,66.989342 36.953396,67.165573 
	C38.038231,67.735481 38.530422,68.142883 39.055634,68.802933 
	C39.062016,69.393791 39.035378,69.732010 39.008736,70.070229 
	C38.468754,70.256073 37.928772,70.441917 37.157372,70.851791 
	C36.925957,71.075813 36.944874,71.039055 37.091347,70.680496 
	C36.817692,69.700142 36.397560,69.078346 35.977428,68.456543 
	C35.977428,68.456543 35.892403,68.449966 35.908607,68.470810 
z"/>
<path fill="#D55732" opacity="1.000000" stroke="none" 
	d="
M35.661453,68.793167 
	C36.397560,69.078346 36.817692,69.700142 37.102646,70.678650 
	C36.426800,70.400177 35.886139,69.764984 35.661453,68.793167 
z"/>
<path fill="#F3EDEB" opacity="1.000000" stroke="none" 
	d="
M23.621548,47.675072 
	C22.299725,44.826481 21.215597,41.938839 19.970596,38.718136 
	C19.072121,33.612942 18.334520,28.840807 17.523548,23.593966 
	C20.620701,22.908894 22.978975,22.387259 25.628838,22.238831 
	C25.334505,25.441927 24.748581,28.271816 24.092140,31.442291 
	C29.783274,30.828465 29.865124,35.913338 32.122269,39.335880 
	C32.030899,41.362751 31.845331,42.988159 31.268974,44.587555 
	C29.595057,44.718067 28.311928,44.874592 27.028801,45.031116 
	C25.972282,45.899418 24.915764,46.767719 23.621548,47.675072 
z"/>
<path fill="#2B2A2A" opacity="1.000000" stroke="none" 
	d="
M32.028069,38.934414 
	C29.865124,35.913338 29.783274,30.828465 24.092140,31.442291 
	C24.748581,28.271816 25.334505,25.441927 26.052462,22.223293 
	C27.159163,21.515944 28.133831,21.197334 29.764627,20.902386 
	C31.949648,22.269932 33.478542,23.613819 35.118820,25.282188 
	C36.487297,25.415089 37.744381,25.223509 39.001175,25.385717 
	C39.018372,26.210836 39.035862,26.682165 38.788361,27.380152 
	C37.582336,28.202187 36.641308,28.797565 35.180805,29.721605 
	C37.104454,30.687521 38.222031,31.248684 39.213009,32.072701 
	C39.064598,32.528828 39.042778,32.722103 38.978306,33.289318 
	C37.982555,35.452477 37.029461,37.241688 36.216362,38.595078 
	C35.553383,37.330547 34.750401,36.501842 33.947422,35.673141 
	C33.293777,36.808929 32.640133,37.944717 31.965399,39.035023 
	C31.944313,38.989540 32.028069,38.934414 32.028069,38.934414 
z"/>
<path fill="#F7F3F2" opacity="1.000000" stroke="none" 
	d="
M35.007435,24.957706 
	C33.478542,23.613819 31.949648,22.269932 30.053932,20.784851 
	C31.709787,19.029715 33.732464,17.415775 36.236870,15.437721 
	C37.252365,14.783763 37.786129,14.493917 38.472088,14.416107 
	C38.748047,14.750456 38.871811,14.872766 38.914345,15.340385 
	C37.557892,18.776365 36.282661,21.867035 35.007435,24.957706 
z"/>
<path fill="#DC6B4A" opacity="1.000000" stroke="none" 
	d="
M38.319893,14.204069 
	C37.786129,14.493917 37.252365,14.783763 36.430122,15.172879 
	C35.917755,14.944839 35.693859,14.617528 35.215500,14.132139 
	C35.947712,12.915967 36.934391,11.857875 38.102966,10.548162 
	C38.559887,10.137929 38.793575,9.932331 39.110176,9.481150 
	C40.184772,9.228612 41.135124,9.174676 42.437111,9.184851 
	C42.926285,9.537958 43.119019,9.783654 43.565151,10.113297 
	C44.828381,11.636518 45.893414,13.032490 46.619705,14.751341 
	C45.332287,14.531045 44.164135,14.183118 43.475300,13.408792 
	C41.237019,10.892718 39.695560,11.732512 38.319893,14.204069 
z"/>
<path fill="#696765" opacity="1.000000" stroke="none" 
	d="
M37.720032,64.585625 
	C37.604362,63.828720 37.488689,63.071815 37.604122,61.920708 
	C38.491463,60.251293 39.485771,59.036591 39.727318,57.687149 
	C40.122364,55.480148 40.027370,53.185432 40.463097,50.887146 
	C41.352707,50.553699 41.918312,50.260830 42.483913,49.967957 
	C42.483913,49.967957 42.481415,50.013813 42.565132,50.397816 
	C44.018906,53.064922 45.388969,55.348022 46.446991,57.942085 
	C46.426117,59.592354 46.717285,60.931660 47.051270,62.564339 
	C47.413086,63.325520 47.732086,63.793335 48.051086,64.261147 
	C47.495140,65.097412 46.939194,65.933670 45.967964,66.571297 
	C45.229782,66.132980 44.906883,65.893311 44.544956,65.306763 
	C44.448174,63.761257 44.390415,62.562614 44.332657,61.363972 
	C43.959019,61.110157 43.585377,60.856339 43.211739,60.602524 
	C42.805843,61.390308 42.399944,62.178097 41.692177,62.939590 
	C40.813114,63.630997 40.235924,64.348701 39.166328,64.977386 
	C38.355957,64.787460 38.037994,64.686539 37.720032,64.585625 
z"/>
<path fill="#413F3F" opacity="1.000000" stroke="none" 
	d="
M48.316544,64.036789 
	C47.732086,63.793335 47.413086,63.325520 47.342155,62.294952 
	C47.640518,60.447639 47.690811,59.163090 47.771461,57.543831 
	C48.144562,56.434917 48.487305,55.660709 49.105446,54.937881 
	C49.566444,55.010063 49.752045,55.030869 50.009567,55.328442 
	C50.668022,55.781136 51.254551,55.957062 51.914898,56.609718 
	C52.031979,57.405140 52.075245,57.723824 52.118507,58.042503 
	C50.939671,59.965813 49.760838,61.889126 48.316544,64.036789 
z"/>
<path fill="#E1E1E1" opacity="1.000000" stroke="none" 
	d="
M39.658733,65.066406 
	C40.235924,64.348701 40.813114,63.630997 41.694786,63.264481 
	C42.003593,64.048805 42.007915,64.481941 41.724773,65.102272 
	C41.407314,65.933578 41.377323,66.577705 41.337936,67.575699 
	C41.241497,68.625725 41.154453,69.321877 41.067410,70.018028 
	C40.609043,70.010040 40.150677,70.002052 39.350525,70.032150 
	C39.035378,69.732010 39.062016,69.393791 39.357224,68.446762 
	C39.636776,66.914101 39.647755,65.990257 39.658733,65.066406 
z"/>
<path fill="#383433" opacity="1.000000" stroke="none" 
	d="
M41.041164,70.006882 
	C41.154453,69.321877 41.241497,68.625725 41.691483,67.570671 
	C42.469429,67.002724 42.884434,66.793671 43.448944,66.517715 
	C43.762138,66.282150 43.961342,66.204178 44.440094,66.456161 
	C44.846382,66.855354 45.008652,67.015282 45.170921,67.175209 
	C44.423080,68.188591 43.675240,69.201973 42.342209,70.101959 
	C41.526215,69.981651 41.295410,69.974739 41.064610,69.967819 
	C41.064610,69.967819 41.014919,69.995728 41.041164,70.006882 
z"/>
<path fill="#696767" opacity="1.000000" stroke="none" 
	d="
M52.382904,57.824333 
	C52.075245,57.723824 52.031979,57.405140 51.940575,56.308308 
	C51.910210,54.692818 51.927986,53.855476 51.945763,53.018131 
	C52.518513,52.884007 53.091267,52.749882 53.840973,52.807373 
	C53.561058,54.534710 53.104179,56.070435 52.382904,57.824333 
z"/>
<path fill="#383433" opacity="1.000000" stroke="none" 
	d="
M44.583981,65.653633 
	C44.906883,65.893311 45.229782,66.132980 45.664585,66.652802 
	C45.776485,66.932945 45.485676,67.084358 45.328300,67.129784 
	C45.008652,67.015282 44.846382,66.855354 44.488297,66.281761 
	C44.292477,65.868095 44.583981,65.653633 44.583981,65.653633 
z"/>
<path fill="#878584" opacity="1.000000" stroke="none" 
	d="
M41.110741,70.183487 
	C41.295410,69.974739 41.526215,69.981651 42.030144,70.205597 
	C41.921135,70.414795 41.539005,70.406975 41.110741,70.183487 
z"/>
<path fill="#F7F3F2" opacity="1.000000" stroke="none" 
	d="
M38.472088,14.416107 
	C39.695560,11.732512 41.237019,10.892718 43.475300,13.408792 
	C44.164135,14.183118 45.332287,14.531045 46.651138,15.088857 
	C47.394386,15.418232 47.767456,15.732970 48.398483,16.015600 
	C52.965679,18.322830 57.264927,20.681002 61.597042,22.977173 
	C62.126297,23.257694 62.831886,23.205534 63.838326,23.370104 
	C64.080994,31.465580 62.520241,39.037491 59.022308,46.607246 
	C57.919880,46.496277 56.929760,46.141014 56.060589,45.593685 
	C55.294849,45.111496 54.664265,44.414669 53.473972,43.525375 
	C50.048943,39.607117 47.123940,35.976112 44.397217,31.944515 
	C44.749989,30.378935 44.904480,29.213945 45.170990,27.719574 
	C46.511150,26.589201 47.739300,25.788208 49.328140,24.991282 
	C52.656601,24.205250 51.977413,22.852314 49.801464,22.300978 
	C48.191719,21.893105 46.296062,22.613628 44.467918,22.821796 
	C44.408051,22.812145 44.355003,22.703087 44.477615,22.336485 
	C42.732014,19.644947 40.863792,17.320011 38.995571,14.995077 
	C38.871811,14.872766 38.748047,14.750456 38.472088,14.416107 
z"/>
<path fill="#0F0C0C" opacity="1.000000" stroke="none" 
	d="
M44.198940,32.345104 
	C47.123940,35.976112 50.048943,39.607117 53.111507,43.562500 
	C52.122288,44.267288 50.995506,44.647697 49.424911,44.837719 
	C48.981098,44.647327 48.653679,44.522999 48.596092,44.233971 
	C46.432426,41.566959 44.326344,39.188980 42.220264,36.811001 
	C41.847565,37.088665 41.474865,37.366333 41.102165,37.643997 
	C41.595097,39.922894 42.088028,42.201790 42.154175,44.634659 
	C38.371517,44.730274 35.015640,44.671917 31.659763,44.613564 
	C31.845331,42.988159 32.030899,41.362751 32.122269,39.335880 
	C32.028069,38.934414 31.944313,38.989540 32.353699,39.190914 
	C33.867512,39.271828 34.971939,39.151367 36.076366,39.030903 
	C37.029461,37.241688 37.982555,35.452477 39.268921,33.318985 
	C39.725067,32.642284 39.847939,32.309860 40.323318,31.962601 
	C41.370651,31.848539 42.065472,31.749310 42.971878,31.818573 
	C43.521957,32.106415 43.860447,32.225758 44.198940,32.345104 
z"/>
<path fill="#B4B3B2" opacity="1.000000" stroke="none" 
	d="
M40.139091,50.927715 
	C40.027370,53.185432 40.122364,55.480148 39.727318,57.687149 
	C39.485771,59.036591 38.491463,60.251293 37.388100,61.598175 
	C36.940971,61.669849 36.950996,61.592445 36.990845,61.237183 
	C36.437199,60.241928 35.843708,59.601933 35.173470,58.549522 
	C34.708839,56.091530 34.320953,54.045963 34.056923,51.726662 
	C35.467102,50.883732 36.753422,50.314529 38.039745,49.745327 
	C38.473804,49.710022 38.907860,49.674717 39.692719,49.971550 
	C40.075371,50.511696 40.107231,50.719704 40.139091,50.927715 
z"/>
<path fill="#C75A3B" opacity="1.000000" stroke="none" 
	d="
M31.268972,44.587555 
	C35.015640,44.671917 38.371517,44.730274 42.531174,44.698383 
	C45.107861,44.579758 46.880768,44.551376 48.653679,44.522999 
	C48.653679,44.522999 48.981098,44.647327 49.056892,44.806911 
	C50.263092,45.416634 51.393505,45.866776 52.330910,46.592957 
	C44.075596,46.853352 36.013287,46.837711 27.950974,46.822067 
	C27.702518,46.382553 27.454063,45.943039 27.117205,45.267323 
	C28.311928,44.874592 29.595057,44.718067 31.268972,44.587555 
z"/>
<path fill="#ECE9E8" opacity="1.000000" stroke="none" 
	d="
M48.830048,54.886505 
	C48.487305,55.660709 48.144562,56.434917 47.607079,57.487972 
	C47.201302,57.689068 46.983532,57.643837 46.759029,57.631126 
	C45.388969,55.348022 44.018906,53.064922 42.546646,50.384190 
	C44.358349,49.921448 46.272251,49.856335 48.614597,50.183975 
	C49.080132,50.761482 49.117218,50.946236 49.107391,51.505051 
	C48.983665,52.881577 48.906857,53.884041 48.830048,54.886505 
z"/>
<path fill="#C98976" opacity="1.000000" stroke="none" 
	d="
M37.695862,49.521564 
	C36.753422,50.314529 35.467102,50.883732 34.052979,52.114265 
	C33.905025,53.801327 33.884872,54.827057 33.864719,55.852783 
	C33.032436,51.515514 30.421001,50.005390 25.925720,50.817307 
	C25.657072,50.302441 25.673729,50.006287 25.690758,49.710159 
	C29.577829,49.572708 33.464901,49.435253 37.695862,49.521564 
z"/>
<path fill="#E5927D" opacity="1.000000" stroke="none" 
	d="
M27.819664,47.126881 
	C36.013287,46.837711 44.075596,46.853352 52.604523,46.770828 
	C52.976852,47.074402 52.878563,47.828789 52.788841,47.827774 
	C44.421589,47.732941 36.054993,47.580429 27.819664,47.126881 
z"/>
<path fill="#9E9A99" opacity="1.000000" stroke="none" 
	d="
M49.154308,51.130989 
	C49.117218,50.946236 49.080132,50.761482 49.077888,50.296669 
	C49.483562,49.923897 49.854393,49.831196 50.510803,49.731655 
	C50.997456,50.667606 51.198521,51.610397 51.672676,52.785660 
	C51.927986,53.855476 51.910210,54.692818 51.866760,55.831573 
	C51.254551,55.957062 50.668022,55.781136 50.050529,54.975876 
	C49.731152,53.274685 49.442730,52.202839 49.154308,51.130989 
z"/>
<path fill="#F3CBC0" opacity="1.000000" stroke="none" 
	d="
M25.465715,49.692078 
	C25.673729,50.006287 25.657072,50.302441 25.529648,50.799782 
	C25.418509,51.000946 25.151527,50.985363 25.151527,50.985363 
	C25.151527,50.985363 24.884800,51.004925 24.750040,51.026543 
	C24.823746,50.590103 25.032209,50.132050 25.465715,49.692078 
z"/>
<path fill="#C98976" opacity="1.000000" stroke="none" 
	d="
M40.463097,50.887146 
	C40.107231,50.719704 40.075371,50.511696 40.019379,49.988274 
	C40.696697,49.625145 41.398159,49.577431 42.291763,49.748840 
	C41.918312,50.260830 41.352707,50.553699 40.463097,50.887146 
z"/>
<path fill="#595959" opacity="1.000000" stroke="none" 
	d="
M33.974388,56.233665 
	C33.884872,54.827057 33.905025,53.801327 33.929123,52.387997 
	C34.320953,54.045963 34.708839,56.091530 34.913124,58.555336 
	C34.556423,58.972889 34.383320,58.972210 34.210213,58.971527 
	C34.168159,58.185867 34.126106,57.400208 33.974388,56.233665 
z"/>
<path fill="#696765" opacity="1.000000" stroke="none" 
	d="
M34.172592,59.362064 
	C34.383320,58.972210 34.556423,58.972889 34.989868,58.967758 
	C35.843708,59.601933 36.437199,60.241928 37.004627,61.215141 
	C36.030697,60.949776 35.082832,60.351189 34.172592,59.362064 
z"/>
<path fill="#282727" opacity="1.000000" stroke="none" 
	d="
M39.166328,64.977386 
	C39.647755,65.990257 39.636776,66.914101 39.324203,68.194122 
	C38.530422,68.142883 38.038231,67.735481 37.262817,67.181091 
	C36.975334,66.315910 36.971073,65.597717 37.343422,64.732574 
	C38.037994,64.686539 38.355957,64.787460 39.166328,64.977386 
z"/>
<path fill="#E0DFDF" opacity="1.000000" stroke="none" 
	d="
M38.914345,15.340385 
	C40.863792,17.320011 42.732014,19.644947 44.202560,22.184704 
	C42.203747,23.276993 40.602608,24.154461 39.001469,25.031927 
	C37.744381,25.223509 36.487297,25.415089 35.118820,25.282188 
	C36.282661,21.867035 37.557892,18.776365 38.914345,15.340385 
z"/>
<path fill="#EDECEC" opacity="1.000000" stroke="none" 
	d="
M42.760288,31.650080 
	C42.065472,31.749310 41.370651,31.848539 40.196632,31.803535 
	C39.717426,31.659300 39.339603,31.809847 39.339603,31.809847 
	C38.222031,31.248684 37.104454,30.687521 35.180805,29.721605 
	C36.641308,28.797565 37.582336,28.202187 39.200653,27.344921 
	C41.064655,27.311653 42.251377,27.540272 43.306358,28.141994 
	C43.036507,29.560093 42.898396,30.605085 42.760288,31.650080 
z"/>
<path fill="#252424" opacity="1.000000" stroke="none" 
	d="
M43.438095,27.768890 
	C42.251377,27.540272 41.064655,27.311653 39.465645,27.118263 
	C39.035862,26.682165 39.018372,26.210836 39.001175,25.385717 
	C40.602608,24.154461 42.203747,23.276993 44.079945,22.551308 
	C44.355003,22.703087 44.408051,22.812145 44.655449,23.106396 
	C46.257710,23.929504 47.612579,24.458359 48.967445,24.987215 
	C47.739300,25.788208 46.511150,26.589201 44.903408,27.641420 
	C44.161907,27.851395 43.799999,27.810143 43.438095,27.768890 
z"/>
<path fill="#F3EDEB" opacity="1.000000" stroke="none" 
	d="
M36.216362,38.595078 
	C34.971939,39.151367 33.867512,39.271828 32.374786,39.236397 
	C32.640133,37.944717 33.293777,36.808929 33.947422,35.673141 
	C34.750401,36.501842 35.553383,37.330547 36.216362,38.595078 
z"/>
<path fill="#ACAAAA" opacity="1.000000" stroke="none" 
	d="
M39.213009,32.072701 
	C39.339603,31.809847 39.717426,31.659300 39.844116,31.818367 
	C39.847939,32.309860 39.725067,32.642284 39.311577,32.945045 
	C39.042778,32.722103 39.064598,32.528828 39.213009,32.072701 
z"/>
<path fill="#EEEEEE" opacity="1.000000" stroke="none" 
	d="
M44.544956,65.306763 
	C44.583981,65.653633 44.292477,65.868095 44.244274,66.042496 
	C43.961342,66.204178 43.762138,66.282150 43.366703,66.260880 
	C42.760712,65.685661 42.386475,65.300377 42.012238,64.915085 
	C42.007915,64.481941 42.003593,64.048805 41.996658,63.290775 
	C42.399944,62.178097 42.805843,61.390308 43.211739,60.602524 
	C43.585377,60.856339 43.959019,61.110157 44.332657,61.363972 
	C44.390415,62.562614 44.448174,63.761257 44.544956,65.306763 
z"/>
<path fill="#B0AFAF" opacity="1.000000" stroke="none" 
	d="
M46.446991,57.942085 
	C46.983532,57.643837 47.201302,57.689068 47.576721,57.822678 
	C47.690811,59.163090 47.640518,60.447639 47.299339,62.001579 
	C46.717285,60.931660 46.426117,59.592354 46.446991,57.942085 
z"/>
<path fill="#6C6C6C" opacity="1.000000" stroke="none" 
	d="
M49.107391,51.505051 
	C49.442730,52.202839 49.731152,53.274685 49.978607,54.699104 
	C49.752045,55.030869 49.566444,55.010063 49.105446,54.937881 
	C48.906857,53.884041 48.983665,52.881577 49.107391,51.505051 
z"/>
<path fill="#878584" opacity="1.000000" stroke="none" 
	d="
M41.724773,65.102272 
	C42.386475,65.300377 42.760712,65.685661 43.217194,66.327789 
	C42.884434,66.793671 42.469429,67.002724 41.700874,67.216797 
	C41.377323,66.577705 41.407314,65.933578 41.724773,65.102272 
z"/>
<path fill="#E0DFDF" opacity="1.000000" stroke="none" 
	d="
M49.328140,24.991282 
	C47.612579,24.458359 46.257710,23.929504 44.715313,23.116049 
	C46.296062,22.613628 48.191719,21.893105 49.801464,22.300978 
	C51.977413,22.852314 52.656601,24.205250 49.328140,24.991282 
z"/>
<path fill="#7C7B7B" opacity="1.000000" stroke="none" 
	d="
M43.306358,28.141994 
	C43.799999,27.810143 44.161907,27.851395 44.791389,27.970802 
	C44.904480,29.213945 44.749989,30.378935 44.397217,31.944515 
	C43.860447,32.225758 43.521957,32.106415 42.971878,31.818573 
	C42.898396,30.605085 43.036507,29.560093 43.306358,28.141994 
z"/>
<path fill="#E2D9D6" opacity="1.000000" stroke="none" 
	d="
M48.596092,44.233971 
	C46.880768,44.551376 45.107861,44.579758 42.957954,44.544411 
	C42.088028,42.201790 41.595097,39.922894 41.102165,37.643997 
	C41.474865,37.366333 41.847565,37.088665 42.220264,36.811001 
	C44.326344,39.188980 46.432426,41.566959 48.596092,44.233971 
z"/>
</svg>